<svg width="39" height="39" viewBox="0 0 39 39" fill="none" xmlns="http://www.w3.org/2000/svg">
<path d="M19.5 39C30.2696 39 39 30.2696 39 19.5C39 8.73045 30.2696 0 19.5 0C8.73045 0 0 8.73045 0 19.5C0 30.2696 8.73045 39 19.5 39Z" fill="#FFE14D"/>
<path d="M39 19.5C39 8.74765 30.2523 0 19.5 0V39C30.2523 39 39 30.2523 39 19.5Z" fill="#FFBB33"/>
<path d="M19.5 34.3535C11.31 34.3535 4.64648 27.69 4.64648 19.5C4.64648 11.31 11.31 4.64648 19.5 4.64648C27.69 4.64648 34.3535 11.31 34.3535 19.5C34.3535 27.69 27.69 34.3535 19.5 34.3535Z" fill="#FFBB33"/>
<path d="M34.3535 19.5C34.3535 11.31 27.69 4.64648 19.5 4.64648V34.3535C27.69 34.3535 34.3535 27.69 34.3535 19.5Z" fill="#E68A2E"/>
<path d="M20.6426 18.4388V13.9213C21.9567 14.2437 22.9277 15.0893 22.9277 16.0611C22.9277 16.6927 23.4388 17.2037 24.0703 17.2037C24.7019 17.2037 25.2129 16.6927 25.2129 16.0611C25.2129 13.8535 23.2476 12.0077 20.6426 11.5833V10.3482C20.6426 9.7167 20.1315 9.20566 19.5 9.20566C18.8685 9.20566 18.3574 9.7167 18.3574 10.3482V11.5833C15.7524 12.0077 13.7871 13.8535 13.7871 16.0611C13.7871 18.2687 15.7524 20.1145 18.3574 20.539V25.0564C17.0433 24.734 16.0723 23.8885 16.0723 22.9166C16.0723 22.2851 15.5612 21.774 14.9297 21.774C14.2981 21.774 13.7871 22.2851 13.7871 22.9166C13.7871 25.1242 15.7524 26.97 18.3574 27.3944V28.6406C18.3574 29.2721 18.8685 29.7832 19.5 29.7832C20.1315 29.7832 20.6426 29.2721 20.6426 28.6406V27.3944C23.2476 26.97 25.2129 25.1242 25.2129 22.9166C25.2129 20.709 23.2476 18.8631 20.6426 18.4388ZM16.0723 16.0611C16.0723 15.0893 17.0433 14.2437 18.3574 13.9213V18.2009C17.0433 17.8784 16.0723 17.0329 16.0723 16.0611ZM20.6426 25.0564V20.7768C21.9567 21.0992 22.9277 21.9447 22.9277 22.9166C22.9277 23.8885 21.9567 24.7339 20.6426 25.0564Z" fill="#FFE14D"/>
<path d="M20.6426 28.6406V27.3944C23.2476 26.97 25.2129 25.1242 25.2129 22.9166C25.2129 20.709 23.2476 18.8632 20.6426 18.4388V13.9213C21.9567 14.2437 22.9277 15.0893 22.9277 16.0611C22.9277 16.6927 23.4388 17.2037 24.0703 17.2037C24.7019 17.2037 25.2129 16.6927 25.2129 16.0611C25.2129 13.8535 23.2476 12.0077 20.6426 11.5833V10.3482C20.6426 9.7167 20.1315 9.20566 19.5 9.20566V29.7832C20.1315 29.7832 20.6426 29.2721 20.6426 28.6406ZM20.6426 20.7767C21.9567 21.0991 22.9277 21.9446 22.9277 22.9165C22.9277 23.8884 21.9567 24.7339 20.6426 25.0563V20.7767Z" fill="#FFBB33"/>
</svg>
