<svg width="30" height="30" viewBox="0 0 30 30" fill="none" xmlns="http://www.w3.org/2000/svg">
<g clip-path="url(#clip0)">
<path d="M28.405 14.7C27.926 14.7 27.508 14.928 27.233 15.276C25.673 14.149 22.241 12.282 19.258 15.005C19.258 15.005 16.237 10.837 18.276 7.436C18.522 7.614 18.823 7.722 19.151 7.722C19.978 7.722 20.651 7.051 20.651 6.222C20.651 5.393 19.978 4.722 19.151 4.722C18.323 4.722 17.649 5.393 17.649 6.222C17.649 6.39 17.681 6.549 17.733 6.7C15.592 7.519 11.897 9.558 11.343 14.007C11.343 14.007 7.91402 9.466 2.77002 12.413C2.50502 11.988 2.03802 11.702 1.50002 11.702C0.671023 11.702 -0.000976562 12.374 -0.000976562 13.202C-0.000976562 14.03 0.671023 14.702 1.50002 14.702C2.32802 14.702 2.99902 14.03 2.99902 13.202C2.99902 13.155 2.98902 13.111 2.98502 13.065C4.77902 13.205 7.65502 14.791 8.44602 23.216L8.53602 23.904C8.53602 24.611 11.394 25.183 14.918 25.183C18.444 25.183 21.301 24.609 21.301 23.904C21.301 23.904 21.53 18.124 26.912 16.281C26.953 17.072 27.6 17.704 28.403 17.704C29.233 17.704 29.903 17.031 29.903 16.204C29.907 15.371 29.235 14.7 28.405 14.7Z" fill="#011540"/>
</g>
<defs>
<clipPath id="clip0">
<rect width="29.904" height="29.904" fill="white"/>
</clipPath>
</defs>
</svg>
