<svg width="200" height="200" viewBox="0 0 200 200" fill="none" xmlns="http://www.w3.org/2000/svg">
<path d="M78.5713 0H21.4286C17.4836 0 14.2856 3.19796 14.2856 7.14299V192.857C14.2856 196.802 17.4836 200 21.4286 200H78.5713C82.5163 200 85.7143 196.802 85.7143 192.857V7.14299C85.7143 3.19796 82.5163 0 78.5713 0Z" fill="#FFE04D"/>
<path d="M178.571 0H121.428C117.483 0 114.285 3.19796 114.285 7.14299V192.857C114.285 196.802 117.483 200 121.428 200H178.571C182.516 200 185.714 196.802 185.714 192.857V7.14299C185.714 3.19796 182.516 0 178.571 0Z" fill="#FFE04D"/>
</svg>
